<svg width="20" height="20" viewBox="0 0 20 20" fill="none" xmlns="http://www.w3.org/2000/svg">
<circle cx="12.0832" cy="5.41667" r="2.16667" stroke="#121212" stroke-width="1.5"/>
<path d="M9.24984 14.5834C9.24984 15.78 8.27979 16.7501 7.08317 16.7501C5.88655 16.7501 4.9165 15.78 4.9165 14.5834C4.9165 13.3868 5.88655 12.4167 7.08317 12.4167C8.27979 12.4167 9.24984 13.3868 9.24984 14.5834Z" stroke="#121212" stroke-width="1.5"/>
<path d="M17.5 6.16675C17.9142 6.16675 18.25 5.83096 18.25 5.41675C18.25 5.00253 17.9142 4.66675 17.5 4.66675V6.16675ZM2.5 4.66675C2.08579 4.66675 1.75 5.00253 1.75 5.41675C1.75 5.83096 2.08579 6.16675 2.5 6.16675V4.66675ZM2.5 13.8334C2.08579 13.8334 1.75 14.1692 1.75 14.5834C1.75 14.9976 2.08579 15.3334 2.5 15.3334V13.8334ZM17.5 15.3334C17.9142 15.3334 18.25 14.9976 18.25 14.5834C18.25 14.1692 17.9142 13.8334 17.5 13.8334V15.3334ZM14.5833 6.16675H17.5V4.66675H14.5833V6.16675ZM9.58333 4.66675H2.5V6.16675H9.58333V4.66675ZM4.58333 13.8334H2.5V15.3334H4.58333V13.8334ZM9.16667 15.3334H17.5V13.8334H9.16667V15.3334Z" fill="#121212"/>
</svg>
