<?xml version="1.0" encoding="utf-8"?><svg viewBox="0 0 512 512" xmlns="http://www.w3.org/2000/svg" xmlns:xlink="http://www.w3.org/1999/xlink"><style>:root>svg{display:none}:root>svg:target{display:block}</style><svg viewBox="0 0 25 25" id="black-plus" xmlns="http://www.w3.org/2000/svg"><g clip-path="url(#aa)"><mask id="aa" maskUnits="userSpaceOnUse" x="0" y="0" width="25" height="25"><path d="M25 0H0v25h25V0z"/></mask><g mask="url(#aa)"><path d="M13 0h-1v25h1V0z"/><path d="M25 13v-1H0v1h25z"/></g></g><defs><clipPath id="aa"><path d="M0 0h25v25H0z"/></clipPath></defs></svg><svg viewBox="0 0 40 45" id="coffe-machine" xmlns="http://www.w3.org/2000/svg"><g clip-path="url(#ba)" fill-rule="evenodd" clip-rule="evenodd"><path d="M27.8 3.2a3 3 0 016 0v.4a3.001 3.001 0 01-2.402 2.94A3.8 3.8 0 0127.6 10.2h-4.8a2.6 2.6 0 00-2.6 2.6v.223a7.802 7.802 0 017.177 7.177H28a3.8 3.8 0 013.8 3.8v16.8a3.8 3.8 0 01-3.8 3.8H11.2a3.8 3.8 0 01-3.8-3.8V24a3.8 3.8 0 013.8-3.8h.623A7.802 7.802 0 0119 13.023V12.8A3.8 3.8 0 0122.8 9h4.8a2.6 2.6 0 002.596-2.46A3.001 3.001 0 0127.8 3.6v-.4zm-14.773 17a6.6 6.6 0 0113.146 0H13.027zM11.2 21.4A2.6 2.6 0 008.6 24v16.8a2.6 2.6 0 002.6 2.6H28a2.6 2.6 0 002.6-2.6V24a2.6 2.6 0 00-2.6-2.6H11.2zm19.6-20A1.8 1.8 0 0029 3.2v.4a1.8 1.8 0 003.6 0v-.4a1.8 1.8 0 00-1.8-1.8z"/><path d="M17.513 26.397c-.738.359-1.358 1.084-1.737 2.146-.445 1.251-.51 2.882-.016 4.576.493 1.693 1.423 3.034 2.471 3.85.541.422 1.09.69 1.622.814a4.528 4.528 0 01-.259-.35c-.69-1.03-1.143-2.57-.992-4.676.155-2.178-.074-3.77-.406-4.862-.218-.717-.474-1.201-.683-1.498zm4.031 11.27c-.284-.145-.632-.422-.953-.9-.514-.77-.928-2.03-.793-3.924.165-2.302-.073-4.043-.454-5.298a7.295 7.295 0 00-.581-1.408c.704.025 1.463.315 2.206.893 1.048.817 1.978 2.158 2.471 3.851.494 1.694.43 3.325-.016 4.576-.403 1.13-1.08 1.878-1.88 2.21zm.456 1.11c2.493-1.027 3.651-4.596 2.593-8.231-1.113-3.818-4.25-6.262-7.007-5.459-2.757.803-4.09 4.55-2.978 8.367 1.1 3.777 4.18 6.209 6.916 5.484a3.637 3.637 0 00.476-.16z"/></g><defs><clipPath id="ba"><path d="M0 0h40v44.8H0z"/></clipPath></defs></svg><svg viewBox="0 0 512 512" id="cross-inside-circle" xmlns="http://www.w3.org/2000/svg"><!--! Font Awesome Pro 6.4.2 by @fontawesome - https://fontawesome.com License - https://fontawesome.com/license (Commercial License) Copyright 2023 Fonticons, Inc.--><path d="M256 48a208 208 0 110 416 208 208 0 110-416zm0 464a256 256 0 100-512 256 256 0 100 512zm-81-337c-9.4 9.4-9.4 24.6 0 33.9l47 47-47 47c-9.4 9.4-9.4 24.6 0 33.9s24.6 9.4 33.9 0l47-47 47 47c9.4 9.4 24.6 9.4 33.9 0s9.4-24.6 0-33.9l-47-47 47-47c9.4-9.4 9.4-24.6 0-33.9s-24.6-9.4-33.9 0l-47 47-47-47c-9.4-9.4-24.6-9.4-33.9 0z"/></svg><svg viewBox="0 0 40 45" id="dots" xmlns="http://www.w3.org/2000/svg"><circle cx="4" cy="22.4" r="3.25"/><circle cx="20" cy="22.4" r="3.25"/><circle cx="36" cy="22.4" r="3.25"/></svg><svg viewBox="0 0 20 20" id="filter-icon" xmlns="http://www.w3.org/2000/svg"><circle cx="12.083" cy="5.417" r="2.167"/><path d="M9.25 14.583a2.167 2.167 0 11-4.334 0 2.167 2.167 0 014.334 0z"/><path d="M17.5 6.167a.75.75 0 000-1.5v1.5zm-15-1.5a.75.75 0 100 1.5v-1.5zm0 9.166a.75.75 0 000 1.5v-1.5zm15 1.5a.75.75 0 000-1.5v1.5zm-2.917-9.166H17.5v-1.5h-2.917v1.5zm-5-1.5H2.5v1.5h7.083v-1.5zm-5 9.166H2.5v1.5h2.083v-1.5zm4.584 1.5H17.5v-1.5H9.167v1.5z"/></svg><svg viewBox="0 0 40 45" id="grinder" xmlns="http://www.w3.org/2000/svg"><path fill-rule="evenodd" clip-rule="evenodd" d="M15.427 4.067c1.177-.891 2.728-1.467 4.745-1.467 2.018 0 3.568.576 4.746 1.467 1.17.886 1.935 2.057 2.437 3.198.502 1.14.75 2.273.874 3.115a12.54 12.54 0 01.123 1.319l.002.08v.034h-.6.6c0 2.543-.532 3.94-1.13 5.512-.15.394-.303.798-.454 1.234-.736 2.128-1.491 5.218-1.517 11.92l6.235 3.417a.6.6 0 01.312.526V38.8l-.017.069-.583-.14c.583.14.583.141.583.142v.002l-.002.005-.002.009a.304.304 0 01-.006.022 1.46 1.46 0 01-.086.212 2.246 2.246 0 01-.302.445c-.291.343-.777.75-1.583 1.139-1.601.773-4.504 1.495-9.802 1.495s-8.2-.722-9.803-1.495c-.805-.39-1.29-.796-1.582-1.139a2.25 2.25 0 01-.301-.445 1.45 1.45 0 01-.093-.234l-.002-.01-.001-.004-.001-.002c0-.001 0-.002.583-.142l-.583.14L8.2 38.8v-4.378a.6.6 0 01.323-.532l6.568-3.42c-.028-6.155-.78-9.157-1.519-11.38-.128-.387-.259-.755-.387-1.116-.628-1.776-1.194-3.376-1.194-6.16h.6-.6v-.034a5.965 5.965 0 01.016-.375c.015-.25.047-.602.109-1.025.123-.842.371-1.974.873-3.115.502-1.141 1.268-2.312 2.438-3.198zm-2.236 7.746c0 2.567.498 3.979 1.116 5.73.13.37.266.755.404 1.169.786 2.365 1.56 5.513 1.58 11.847l.027.02c.15.114.387.273.715.434.655.32 1.685.656 3.14.656 1.454 0 2.484-.336 3.138-.656.329-.161.565-.32.715-.433l.027-.02c.02-6.86.791-10.104 1.583-12.393.167-.484.33-.915.485-1.322.583-1.536 1.033-2.722 1.033-5.031v-.017a4.8 4.8 0 00-.014-.316 11.38 11.38 0 00-.098-.927c-.114-.773-.34-1.793-.785-2.806-.446-1.012-1.101-1.995-2.064-2.724-.955-.723-2.247-1.224-4.02-1.224-1.774 0-3.066.5-4.022 1.224-.962.73-1.618 1.712-2.063 2.724a11.027 11.027 0 00-.785 2.806 11.38 11.38 0 00-.11 1.18 4.8 4.8 0 00-.002.063v.016zm11.532 19.744a5.618 5.618 0 01-.884.533c-.81.397-2.02.78-3.667.78-1.647 0-2.857-.383-3.667-.78a5.61 5.61 0 01-.891-.539l-5.89 3.067c.223.195.575.442 1.119.697 1.42.666 4.121 1.379 9.157 1.379 5.035 0 7.738-.713 9.157-1.38.554-.259.909-.51 1.132-.707l-5.566-3.05zm5.877 4.321a6.906 6.906 0 01-.933.523c-1.639.77-4.536 1.492-9.667 1.492-5.13 0-8.028-.723-9.667-1.492a6.902 6.902 0 01-.933-.523v2.73c.022.04.062.102.129.18.166.197.51.508 1.19.836C12.09 40.286 14.787 41 20 41c5.213 0 7.91-.714 9.28-1.376.68-.328 1.024-.64 1.19-.835.068-.079.108-.14.13-.18v-2.73z"/></svg><svg viewBox="0 0 24 24" id="instagram" xmlns="http://www.w3.org/2000/svg"><g clip-path="url(#ga)"><path fill-rule="evenodd" clip-rule="evenodd" d="M7.636 0h8.728A7.636 7.636 0 0124 7.636v8.728A7.636 7.636 0 0116.364 24H7.636A7.636 7.636 0 010 16.364V7.636A7.636 7.636 0 017.636 0zm.217 2.667a5.185 5.185 0 00-5.185 5.185v8.296a5.185 5.185 0 005.185 5.185h8.296a5.185 5.185 0 005.185-5.185V7.852a5.185 5.185 0 00-5.185-5.185H7.853zm12.147 4a1.333 1.333 0 10-2.667-.001A1.333 1.333 0 0020 6.667zm-8 0a5.333 5.333 0 110 10.667 5.333 5.333 0 010-10.667zM14.666 12a2.667 2.667 0 10-5.334 0 2.667 2.667 0 005.334 0z"/></g><defs><clipPath id="ga"><path d="M0 0h24v24H0z"/></clipPath></defs></svg><svg viewBox="0 0 70 106" id="logo" xmlns="http://www.w3.org/2000/svg"><path d="M3.324 93.665a26.148 26.148 0 00-2.386-.095H0l5.165-14.472c.229-.65.344-1.025.344-1.128a.942.942 0 00-.012-.202l.012-.024c.514.024 1.06.036 1.638.036.475 0 1.045-.008 1.71-.024l.012.024a.296.296 0 00-.024.13c0 .15.119.55.356 1.2l5.271 14.496a11.387 11.387 0 00-.557-.012l-.618-.024h-2.374l-1.116-3.419H4.44l-1.116 3.514zm5.557-6.363L7.088 81.78 5.343 87.3H8.88zm20.527-3.253c-.15.269-.226.914-.226 1.935v3.68c0 1.116-.577 2.086-1.733 2.909-1.195.863-2.66 1.294-4.393 1.294-2.406 0-4.325-.756-5.758-2.267-1.385-1.441-2.077-3.277-2.077-5.51 0-2.374.704-4.353 2.113-5.936 1.575-1.78 3.744-2.67 6.506-2.67 1.844 0 3.304.355 4.38 1.068l-.19 3.502-.094.024c-.277-.483-.823-.879-1.639-1.188a6.867 6.867 0 00-2.445-.439c-.847 0-1.591.135-2.232.404a4.467 4.467 0 00-1.615 1.151c-.934 1.022-1.4 2.371-1.4 4.049 0 1.464.41 2.64 1.234 3.526.823.879 1.884 1.318 3.182 1.318 1.432 0 2.398-.372 2.897-1.116.158-.237.237-.507.237-.807v-1.971h-1.532c-.823 0-1.27.071-1.341.214l-.036-.012-.107-3.099c.222.063 1.12.095 2.695.095h1.401c.871 0 1.583-.06 2.137-.178l.036.024zm4.334 9.616a26.147 26.147 0 00-2.387-.095h-.938l5.165-14.472c.23-.65.344-1.025.344-1.128a.942.942 0 00-.012-.202l.012-.024c.514.024 1.06.036 1.639.036.474 0 1.044-.008 1.71-.024l.011.024a.295.295 0 00-.024.13c0 .15.119.55.356 1.2l5.272 14.496a11.387 11.387 0 00-.558-.012l-.618-.024H41.34l-1.116-3.419h-5.366l-1.116 3.514zm5.556-6.363l-1.793-5.521-1.745 5.52h3.538zm14.271 6.316c-.254-.032-.67-.048-1.247-.048h-1.306a6.4 6.4 0 00-.582.024l-.012-.024a.375.375 0 00.048-.19c0-.07-.008-.146-.024-.225a3.207 3.207 0 00-.095-.428 29.528 29.528 0 00-.261-.89l-.499-1.591-4.416-12.513c.49.031 1.116.047 1.876.047.76 0 1.246-.032 1.46-.095l3.573 10.792 3.135-10.745c.475.032 1.06.048 1.757.048.95 0 1.504-.032 1.662-.095L54.305 90.21l-.416 1.39c-.23.791-.344 1.306-.344 1.543 0 .23.016.376.047.44l-.023.035zm15.362-2.898c.491 0 .832-.047 1.022-.141l.047.011-.119 2.98H60.99V77.697c.214.016.451.028.712.035l.831.024c.554.016 1.156.024 1.805.024 1.812 0 3.605-.032 5.378-.095-.087.697-.13 1.626-.13 2.79 0 .127.007.222.023.285l-.023.035c-.412-.118-.998-.177-1.758-.177h-3.74v3.027h2.814c.87 0 1.393-.024 1.568-.071l.035 2.932c-.38-.04-.87-.06-1.472-.06h-2.944v4.275h4.844zm-44.216 14.477c-.378.378-.97.567-1.778.567-.784 0-1.424-.238-1.92-.714-.503-.483-.755-1.125-.755-1.925 0-.814.248-1.482.745-2.006.527-.55 1.23-.826 2.112-.826.625 0 1.148.137 1.57.411l-.202 1.297-.035-.006c-.163-.195-.333-.324-.512-.385a2.637 2.637 0 00-.871-.151c-.29 0-.519.037-.684.111a1.248 1.248 0 00-.426.309c-.236.27-.354.628-.354 1.074 0 .79.273 1.307.82 1.55.19.081.389.122.598.122a2.4 2.4 0 00.552-.056c.159-.037.303-.088.43-.152.274-.135.46-.292.558-.471l.036.015.116 1.236zm.674-2.128c0-.371.062-.726.187-1.063.128-.341.31-.639.547-.892.517-.547 1.187-.821 2.011-.821.82 0 1.473.259 1.956.775.462.494.694 1.133.694 1.92 0 .787-.238 1.439-.715 1.956-.503.547-1.17.82-2 .82-.858 0-1.53-.268-2.017-.805-.442-.49-.663-1.12-.663-1.89zm1.23-.03c0 .213.036.419.107.618.07.199.172.37.304.512.28.307.648.461 1.104.461.422 0 .755-.151.998-.451.237-.291.355-.669.355-1.135 0-.473-.122-.854-.365-1.145-.26-.31-.616-.466-1.069-.466-.46 0-.819.166-1.079.497-.236.304-.354.673-.354 1.109zm7.751-2.062c-.027.098-.04.345-.04.74v.446h-1.221v3.525h-1.241v-3.525h-.745l.01-.593.01-.542v-.051h.725v-.314c0-.81.189-1.462.567-1.955.395-.51.939-.765 1.631-.765.294 0 .488.02.583.06l.005 1.272-.01.026a.665.665 0 00-.492-.193.977.977 0 00-.476.101.867.867 0 00-.309.279c-.172.243-.258.576-.258.998v.491h1.261zm3.465 0c-.027.098-.04.345-.04.74v.446h-1.221v3.525h-1.242v-3.525h-.744c.003-.223.006-.421.01-.593l.01-.542v-.051h.724v-.314c0-.81.19-1.462.568-1.955.395-.51.939-.765 1.63-.765.295 0 .489.02.583.06l.005 1.272-.01.026a.666.666 0 00-.491-.193.977.977 0 00-.476.101.868.868 0 00-.31.279c-.171.243-.258.576-.258.998v.491h1.262zm.684 2.108c0-.396.067-.762.202-1.1.135-.337.326-.633.573-.886.527-.537 1.216-.806 2.067-.806.719 0 1.296.239 1.732.715.429.459.643 1.036.643 1.732 0 .267-.02.449-.06.547-.338.095-1.026.142-2.062.142H39.83c.087.361.292.643.613.846.32.199.737.299 1.25.299.538 0 .999-.096 1.384-.289a1.14 1.14 0 00.228-.142 17.78 17.78 0 01-.026.436l-.055.79c-.257.176-.672.297-1.247.365-.168.02-.33.03-.486.03-.858 0-1.567-.25-2.127-.749-.564-.504-.846-1.147-.846-1.93zm3.87-.639c-.139-.726-.534-1.089-1.186-1.089-.513 0-.903.221-1.17.664a1.736 1.736 0 00-.187.446l.299.01h.375c.124.003.244.005.36.005h.288c.172 0 .341-.002.507-.005l.415-.015c.111-.004.211-.009.299-.016zm2.198.639c0-.396.068-.762.203-1.1.135-.337.326-.633.572-.886.527-.537 1.216-.806 2.067-.806.72 0 1.297.239 1.732.715.43.459.644 1.036.644 1.732 0 .267-.02.449-.061.547-.338.095-1.025.142-2.062.142H45.9c.088.361.292.643.613.846.321.199.738.299 1.251.299.537 0 .998-.096 1.383-.289a1.1 1.1 0 00.228-.142 21.27 21.27 0 01-.025.436l-.056.79c-.257.176-.672.297-1.246.365-.169.02-.33.03-.486.03-.858 0-1.567-.25-2.128-.749-.564-.504-.846-1.147-.846-1.93zm3.87-.639c-.138-.726-.533-1.089-1.185-1.089-.513 0-.903.221-1.17.664a1.736 1.736 0 00-.188.446l.3.01h.374c.125.003.245.005.36.005h.289c.172 0 .34-.002.506-.005l.415-.015c.112-.004.212-.009.3-.016z"/><circle cx="35.013" cy="32.906" r="32.906"/><path d="M35.094 16.21l-2.916 9.53c.905 1.958 1.864 4.023 2.918 5.984 1.04-1.938 1.99-3.984 2.915-5.984l-2.917-9.53zm4.943 10.26c-1.148 2.484-2.333 5.046-3.695 7.435.794 1.298 1.642 2.505 2.559 3.55 1.251-1.435 2.467-2.95 3.663-4.46l2.79-15.8c-1.846 1.767-3.544 5.44-5.317 9.276zm-14.763 7.011c-3.01-3.81-5.887-7.452-8.416-8.757l7.417 17.614a11.715 11.715 0 0010.82 7.184c2.396 0 4.667-.722 6.565-2.001-6.449-1.458-11.694-8.1-16.386-14.04z"/><path d="M30.151 26.47c-1.773-3.835-3.47-7.507-5.317-9.275l2.79 15.8c2.337 2.95 4.817 6.004 7.47 8.375a38.19 38.19 0 002.359-2.313c-3.05-3.39-5.3-8.256-7.302-12.586zm14.764 7.011c-2.564 3.246-5.207 6.592-8.147 9.27 2.223 1.674 4.564 2.785 7.039 2.906a11.758 11.758 0 002.107-3.319l7.416-17.614c-2.529 1.305-5.405 4.947-8.415 8.757z"/></svg><svg viewBox="0 0 512 467" id="logo2-clipped" xmlns="http://www.w3.org/2000/svg"><path fill-rule="evenodd" clip-rule="evenodd" d="M255.534 0l-40.868 133.544c12.685 27.437 26.12 56.362 40.887 83.845 14.576-27.155 27.895-55.826 40.849-83.845L255.534 0zm69.267 143.777c-16.089 34.804-32.69 70.702-51.782 104.176 11.119 18.189 23.004 35.107 35.853 49.751 17.541-20.114 34.577-41.348 51.328-62.504l39.104-221.393c-25.87 24.764-49.656 76.22-74.503 129.97zm-206.883 98.231l.004.005.012.016c65.746 83.239 139.242 176.291 229.597 196.714-26.587 17.925-58.418 28.047-91.997 28.047-66.35 0-125.861-39.513-151.609-100.664L0 119.307c35.44 18.281 75.743 69.307 117.918 122.701zm68.351-98.228l-.001-.003c-24.847-53.75-48.634-105.205-74.503-129.97L150.869 235.2c32.733 41.336 67.49 84.133 104.668 117.355 11.26-10.056 22.26-20.948 33.047-32.41-42.731-47.5-74.265-115.687-102.315-176.365zm92.719 228.117c41.197-37.514 78.227-84.397 114.155-129.883 42.176-53.397 82.481-104.425 117.923-122.707L407.139 366.126c-7.319 17.386-17.366 33.019-29.525 46.495-34.675-1.693-67.482-17.262-98.626-40.724z"/></svg><svg viewBox="0 0 25 24" id="market" xmlns="http://www.w3.org/2000/svg"><g clip-path="url(#ja)" stroke-linecap="round"><path d="M1.5 2h1.042c1.431 0 2.62 1.093 2.722 2.504l.33 4.511M8.826 19h10.432a2.72 2.72 0 002.689-2.238l1.511-8.634c.289-1.65-.995-3.159-2.689-3.159H8.24c-1.58 0-2.829 1.322-2.723 2.88l.588 8.634C6.2 17.9 7.391 19 8.827 19zm2.674-7h3m0 0h3m-3 0V9m0 3v3M7.5 22h.027m13.946 0h.027"/></g><defs><clipPath id="ja"><path transform="translate(.5)" d="M0 0h24v24H0z"/></clipPath></defs></svg><svg viewBox="0 0 20 20" id="mobile-arrow" xmlns="http://www.w3.org/2000/svg"><path d="M12.5 15.833L18.333 10m0 0L12.5 4.167M18.333 10H1.667"/></svg><svg viewBox="0 0 40 45" id="scales" xmlns="http://www.w3.org/2000/svg"><g clip-path="url(#la)"><path fill-rule="evenodd" clip-rule="evenodd" d="M40 38.4a6.4 6.4 0 01-6.4 6.4H6.4A6.4 6.4 0 010 38.4V7.2A6.4 6.4 0 016.4.8h27.2A6.4 6.4 0 0140 7.2v31.2zm-1.2-10.2V9.4H1.2v18.8h37.6zM1.2 29.4h37.6v9a5.2 5.2 0 01-5.2 5.2H6.4a5.2 5.2 0 01-5.2-5.2v-9zm0-21.2v-1A5.2 5.2 0 016.4 2h27.2a5.2 5.2 0 015.2 5.2v1H1.2z"/><path d="M8.05 34.4a1.65 1.65 0 11-3.3 0 1.65 1.65 0 013.3 0zm27.2 0a1.65 1.65 0 11-3.3 0 1.65 1.65 0 013.3 0zM12.693 38.4v-.71l1.657-1.533c.14-.136.259-.26.354-.368.097-.11.17-.216.22-.32a.795.795 0 00.076-.344.647.647 0 00-.093-.352.612.612 0 00-.255-.23.797.797 0 00-.366-.082.769.769 0 00-.373.087.595.595 0 00-.245.247.802.802 0 00-.086.384h-.934c0-.304.068-.568.206-.793a1.38 1.38 0 01.58-.52c.248-.123.535-.184.859-.184.333 0 .623.059.87.177.249.117.442.279.58.486.138.208.207.446.207.714 0 .176-.035.35-.105.52-.068.172-.19.362-.366.571a8.446 8.446 0 01-.743.748l-.68.666v.032h1.955v.804h-3.318zm4.607-.54a.53.53 0 01-.387-.16.526.526 0 01-.16-.386.52.52 0 01.16-.382.531.531 0 01.386-.16.53.53 0 01.382.16.51.51 0 01.164.382.51.51 0 01-.078.275.587.587 0 01-.197.197.521.521 0 01-.27.073zm0-2.285a.53.53 0 01-.387-.16.526.526 0 01-.16-.386c0-.148.054-.275.16-.379a.53.53 0 01.386-.16.53.53 0 01.382.16c.11.105.164.231.164.38a.516.516 0 01-.078.277.568.568 0 01-.197.195.52.52 0 01-.27.073zm3.155 2.927a1.774 1.774 0 01-1.009-.288c-.28-.191-.496-.468-.647-.83-.15-.362-.225-.798-.223-1.307 0-.507.075-.94.225-1.297.151-.358.367-.63.648-.816.281-.188.617-.282 1.006-.282.39 0 .725.094 1.005.282.282.188.498.46.65.818.152.356.227.788.225 1.295 0 .51-.076.947-.227 1.31-.15.361-.366.638-.646.829-.28.19-.616.286-1.007.286zm0-.816c.267 0 .48-.134.64-.402.158-.268.237-.67.235-1.207 0-.353-.036-.647-.109-.881-.07-.235-.172-.412-.304-.53a.664.664 0 00-.462-.177c-.265 0-.477.132-.636.397-.159.265-.24.662-.24 1.191 0 .358.035.656.106.896.073.238.175.416.307.536a.672.672 0 00.463.177zm4.368.778a2.103 2.103 0 01-.693-.12 1.578 1.578 0 01-.596-.385 1.86 1.86 0 01-.418-.705c-.101-.292-.152-.651-.152-1.077.002-.39.046-.74.134-1.047a2.35 2.35 0 01.382-.787 1.67 1.67 0 011.377-.661c.31 0 .585.06.823.182a1.515 1.515 0 01.836 1.181h-.97a.648.648 0 00-.239-.381.72.72 0 00-.45-.139.758.758 0 00-.69.395c-.157.264-.236.622-.24 1.075h.032a1.08 1.08 0 01.282-.352c.12-.098.256-.173.407-.225.153-.053.314-.08.484-.08a1.393 1.393 0 011.246.728c.124.226.186.484.186.775a1.6 1.6 0 01-.22.84 1.53 1.53 0 01-.612.578c-.26.138-.563.206-.909.205zm-.005-.773a.768.768 0 00.69-.405.855.855 0 00.101-.418.841.841 0 00-.102-.416.756.756 0 00-.682-.402.78.78 0 00-.568.24.852.852 0 00-.127.992c.07.124.164.223.282.298.12.074.255.11.407.11z"/></g><defs><clipPath id="la"><path d="M0 0h40v44.8H0z"/></clipPath></defs></svg><svg viewBox="0 0 24 24" id="vk" xmlns="http://www.w3.org/2000/svg"><path d="M21.363 14.814s1.94 1.955 2.42 2.86c.01.013.017.027.021.043.196.334.244.596.148.79-.162.32-.71.48-.896.493h-3.43c-.239 0-.736-.064-1.34-.49-.462-.33-.922-.872-1.367-1.402-.665-.787-1.24-1.47-1.822-1.47a.647.647 0 00-.216.037c-.44.141-1 .782-1 2.488 0 .533-.412.837-.701.837h-1.571c-.535 0-3.322-.191-5.792-2.85C2.789 12.897.07 6.369.043 6.31c-.169-.422.186-.652.57-.652h3.464c.464 0 .615.286.72.543.123.295.577 1.476 1.32 2.802 1.206 2.157 1.946 3.035 2.538 3.035.11 0 .22-.03.316-.086.773-.433.63-3.25.593-3.83 0-.112-.001-1.257-.397-1.81-.283-.397-.766-.552-1.057-.608.078-.115.243-.291.456-.395C9.095 5.039 10.05 5 11 5h.527c1.03.015 1.296.082 1.67.179.754.183.769.682.703 2.379a40.55 40.55 0 00-.04 1.674c0 .137-.006.29-.006.445-.023.87-.053 1.852.55 2.254a.48.48 0 00.26.076c.209 0 .834 0 2.53-2.969.744-1.311 1.32-2.858 1.36-2.974.033-.065.134-.247.256-.32a.566.566 0 01.283-.07h4.074c.444 0 .745.07.804.24.099.279-.019 1.127-1.879 3.693-.313.428-.588.798-.83 1.12-1.685 2.259-1.685 2.373.1 4.087z"/></svg></svg>