<svg width="60" height="90" viewBox="0 0 60 90" fill="none" xmlns="http://www.w3.org/2000/svg">
<path d="M2.82879 79.7037C2.24956 79.6498 1.57267 79.6229 0.798122 79.6229H0L4.39472 67.3076C4.59004 66.7553 4.6877 66.4354 4.6877 66.3478C4.6877 66.2535 4.68434 66.1963 4.6776 66.1761L4.6877 66.1559C5.12549 66.1761 5.59022 66.1862 6.08189 66.1862C6.486 66.1862 6.97094 66.1794 7.5367 66.166L7.5468 66.1862C7.53333 66.2131 7.52659 66.2501 7.52659 66.2973C7.52659 66.4253 7.62762 66.7654 7.82968 67.3177L12.3153 79.6532C12.1806 79.6465 12.0223 79.6431 11.8405 79.6431C11.8405 79.6431 11.6654 79.6364 11.3151 79.6229C11.1468 79.6229 10.9952 79.6229 10.8605 79.6229H9.29459L8.34492 76.7133H3.77845L2.82879 79.7037ZM7.5569 74.2886L6.03138 69.5908L4.54627 74.2886H7.5569Z" fill="white"/>
<path d="M25.0247 71.5204C24.8967 71.7494 24.8327 72.2984 24.8327 73.1672V76.2991C24.8327 77.2487 24.341 78.0738 23.3577 78.7743C22.3407 79.5084 21.0947 79.8755 19.6197 79.8755C17.5722 79.8755 15.9389 79.2323 14.7198 77.9458C13.5411 76.72 12.9518 75.1575 12.9518 73.2581C12.9518 71.2376 13.5512 69.5538 14.7501 68.2067C16.0904 66.6913 17.9359 65.9336 20.2864 65.9336C21.8557 65.9336 23.0984 66.2367 24.0144 66.8428L23.8527 69.8232L23.7719 69.8434C23.5362 69.4325 23.0715 69.0958 22.3777 68.8331C21.7177 68.5839 21.024 68.4593 20.2965 68.4593C19.5759 68.4593 18.9428 68.5738 18.3972 68.8028C17.8584 69.0318 17.4004 69.3584 17.0232 69.7828C16.2285 70.6516 15.8311 71.8 15.8311 73.2278C15.8311 74.4738 16.1813 75.474 16.8818 76.2284C17.5823 76.976 18.4848 77.3498 19.5894 77.3498C20.8084 77.3498 21.6301 77.0332 22.0544 76.4001C22.1891 76.1981 22.2565 75.9691 22.2565 75.7131V74.036H20.9532C20.2528 74.036 19.8722 74.0967 19.8116 74.2179L19.7813 74.2078L19.6904 71.571C19.879 71.6248 20.6434 71.6518 21.9837 71.6518H23.1758C23.9167 71.6518 24.5229 71.6013 24.9944 71.5002L25.0247 71.5204Z" fill="white"/>
<path d="M28.7122 79.7037C28.133 79.6498 27.4561 79.6229 26.6815 79.6229H25.8834L30.2781 67.3076C30.4734 66.7553 30.5711 66.4354 30.5711 66.3478C30.5711 66.2535 30.5677 66.1963 30.561 66.1761L30.5711 66.1559C31.0089 66.1761 31.4736 66.1862 31.9653 66.1862C32.3694 66.1862 32.8543 66.1794 33.4201 66.166L33.4302 66.1862C33.4167 66.2131 33.41 66.2501 33.41 66.2973C33.41 66.4253 33.511 66.7654 33.7131 67.3177L38.1987 79.6532C38.064 79.6465 37.9058 79.6431 37.7239 79.6431C37.7239 79.6431 37.5488 79.6364 37.1986 79.6229C37.0302 79.6229 36.8786 79.6229 36.7439 79.6229H35.178L34.2283 76.7133H29.6619L28.7122 79.7037ZM33.4403 74.2886L31.9148 69.5908L30.4297 74.2886H33.4403Z" fill="white"/>
<path d="M45.5839 79.6633C45.3684 79.6364 45.0148 79.6229 44.5231 79.6229H43.4118C43.2299 79.6229 43.0649 79.6296 42.9167 79.6431L42.9066 79.6229C42.9336 79.5758 42.9471 79.5219 42.9471 79.4613C42.9471 79.4006 42.9403 79.3367 42.9268 79.2693C42.9201 79.202 42.8932 79.0807 42.846 78.9056C42.7989 78.7305 42.7248 78.4779 42.6238 78.1479L42.1994 76.7941L38.4412 66.1458C38.8588 66.1727 39.3909 66.1862 40.0374 66.1862C40.684 66.1862 41.0982 66.1592 41.2801 66.1053L44.321 75.2888L46.9882 66.1458C47.3923 66.1727 47.8907 66.1862 48.4834 66.1862C49.2916 66.1862 49.7631 66.1592 49.8978 66.1053L46.2103 76.7638C46.2103 76.7638 46.0924 77.1578 45.8567 77.9458C45.6613 78.6194 45.5637 79.0571 45.5637 79.2592C45.5637 79.4545 45.5772 79.5791 45.6041 79.633L45.5839 79.6633Z" fill="white"/>
<path d="M58.6569 77.1982C59.0745 77.1982 59.3641 77.1578 59.5258 77.077L59.5662 77.0871L59.4651 79.6229H51.8981V66.1154C52.08 66.1289 52.2821 66.139 52.5043 66.1458L53.2115 66.166C53.683 66.1794 54.1948 66.1862 54.7471 66.1862C56.2895 66.1862 57.815 66.1592 59.3237 66.1053C59.2496 66.698 59.2126 67.4894 59.2126 68.4795C59.2126 68.5873 59.2193 68.6681 59.2328 68.722L59.2126 68.7523C58.8623 68.6513 58.3639 68.6007 57.7174 68.6007H54.535V71.177H56.9293C57.6702 71.177 58.1147 71.1567 58.2629 71.1163L58.2932 73.6117C57.9699 73.5781 57.5523 73.5612 57.0405 73.5612H54.535V77.1982H58.6569Z" fill="white"/>
<path d="M21.0311 89.5164C20.7093 89.8383 20.205 89.9992 19.5181 89.9992C18.8515 89.9992 18.3069 89.7966 17.8845 89.3914C17.4563 88.9805 17.2422 88.4345 17.2422 87.7534C17.2422 87.0609 17.4534 86.4919 17.8758 86.0465C18.3241 85.578 18.9233 85.3438 19.6733 85.3438C20.205 85.3438 20.6504 85.4602 21.0096 85.693L20.8372 86.7965L20.807 86.7922C20.6691 86.6255 20.5239 86.5163 20.3716 86.4646C20.1245 86.3784 19.8774 86.3353 19.6302 86.3353C19.3831 86.3353 19.1891 86.3669 19.0483 86.4301C18.9075 86.4933 18.7868 86.581 18.6862 86.693C18.4851 86.9229 18.3845 87.2275 18.3845 87.6069C18.3845 88.2793 18.6172 88.719 19.0828 88.9259C19.2437 88.9949 19.4133 89.0293 19.5914 89.0293C19.7725 89.0293 19.9291 89.0135 20.0613 88.9819C20.1963 88.9503 20.3185 88.9072 20.4277 88.8526C20.6604 88.7377 20.8185 88.604 20.9018 88.4517L20.932 88.4647L21.0311 89.5164Z" fill="white"/>
<path d="M21.6044 87.706C21.6044 87.3899 21.6576 87.0882 21.7639 86.8008C21.8731 86.5106 22.0283 86.2577 22.2295 86.0421C22.6691 85.5766 23.2396 85.3438 23.9408 85.3438C24.6391 85.3438 25.1937 85.5637 25.6046 86.0033C25.9983 86.4229 26.1952 86.9675 26.1952 87.637C26.1952 88.3066 25.9926 88.8612 25.5874 89.3009C25.1592 89.7664 24.5916 89.9992 23.8847 89.9992C23.1548 89.9992 22.5829 89.7708 22.1691 89.3138C21.7927 88.8972 21.6044 88.3612 21.6044 87.706ZM22.6519 87.6801C22.6519 87.8612 22.6821 88.0365 22.7424 88.206C22.8028 88.3756 22.889 88.5207 23.0011 88.6414C23.2396 88.9029 23.5528 89.0337 23.9408 89.0337C24.3 89.0337 24.583 88.9058 24.7899 88.65C24.9911 88.4029 25.0917 88.081 25.0917 87.6845C25.0917 87.2821 24.9882 86.9574 24.7813 86.7103C24.56 86.4459 24.2569 86.3137 23.8718 86.3137C23.481 86.3137 23.1749 86.4545 22.9536 86.7361C22.7525 86.9948 22.6519 87.3094 22.6519 87.6801Z" fill="white"/>
<path d="M29.247 85.9258C29.224 86.0091 29.2125 86.2189 29.2125 86.5551V86.9344H28.1737V89.9346H27.1176V86.9344H26.484C26.4868 86.7448 26.4897 86.5766 26.4926 86.4301L26.5012 85.9689V85.9258H27.1176V85.6585C27.1176 84.9688 27.2785 84.4142 27.6004 83.9946C27.9366 83.5607 28.3993 83.3438 28.9884 83.3438C29.2384 83.3438 29.4036 83.361 29.4841 83.3955L29.4884 84.4774L29.4798 84.499C29.3706 84.3898 29.2312 84.3352 29.0617 84.3352C28.895 84.3352 28.7599 84.3639 28.6565 84.4214C28.553 84.476 28.4654 84.555 28.3935 84.6585C28.247 84.8654 28.1737 85.1484 28.1737 85.5076V85.9258H29.247Z" fill="white"/>
<path d="M32.1954 85.9258C32.1724 86.0091 32.1609 86.2189 32.1609 86.5551V86.9344H31.1221V89.9346H30.066V86.9344H29.4324C29.4352 86.7448 29.4381 86.5766 29.441 86.4301L29.4496 85.9689V85.9258H30.066V85.6585C30.066 84.9688 30.227 84.4142 30.5488 83.9946C30.885 83.5607 31.3477 83.3438 31.9368 83.3438C32.1868 83.3438 32.352 83.361 32.4325 83.3955L32.4368 84.4774L32.4282 84.499C32.319 84.3898 32.1796 84.3352 32.0101 84.3352C31.8434 84.3352 31.7083 84.3639 31.6049 84.4214C31.5014 84.476 31.4138 84.555 31.3419 84.6585C31.1954 84.8654 31.1221 85.1484 31.1221 85.5076V85.9258H32.1954Z" fill="white"/>
<path d="M32.7773 87.7189C32.7773 87.3827 32.8348 87.0709 32.9498 86.7836C33.0647 86.4962 33.2271 86.2447 33.4369 86.0292C33.8852 85.5723 34.4714 85.3438 35.1956 85.3438C35.8077 85.3438 36.2991 85.5464 36.6698 85.9516C37.0347 86.3424 37.2172 86.8338 37.2172 87.4258C37.2172 87.6528 37.2 87.808 37.1655 87.8914C36.8781 87.9718 36.2933 88.0121 35.4111 88.0121H33.8938C33.9685 88.3195 34.1424 88.5595 34.4154 88.7319C34.6884 88.9015 35.0433 88.9862 35.4801 88.9862C35.937 88.9862 36.3292 88.9043 36.6568 88.7405C36.743 88.6974 36.8077 88.6572 36.8508 88.6198C36.8451 88.7405 36.8379 88.8641 36.8293 88.9905L36.7818 89.663C36.5634 89.8124 36.21 89.9159 35.7214 89.9733C35.5778 89.9906 35.4398 89.9992 35.3076 89.9992C34.5777 89.9992 33.9742 89.7866 33.4972 89.3613C33.0173 88.9331 32.7773 88.3856 32.7773 87.7189ZM36.0706 87.1758C35.9528 86.558 35.6166 86.249 35.0619 86.249C34.6251 86.249 34.2932 86.4373 34.0662 86.8137C33.9972 86.9287 33.9441 87.0551 33.9067 87.1931C33.9757 87.1959 34.0605 87.1988 34.161 87.2017H34.48C34.5863 87.2046 34.6884 87.206 34.7861 87.206H35.0318C35.1783 87.206 35.322 87.2046 35.4628 87.2017L35.8163 87.1887C35.9111 87.1859 35.9959 87.1816 36.0706 87.1758Z" fill="white"/>
<path d="M37.9414 87.7189C37.9414 87.3827 37.9988 87.0709 38.1138 86.7836C38.2287 86.4962 38.3911 86.2447 38.6009 86.0292C39.0492 85.5723 39.6354 85.3438 40.3596 85.3438C40.9717 85.3438 41.4631 85.5464 41.8338 85.9516C42.1987 86.3424 42.3812 86.8338 42.3812 87.4258C42.3812 87.6528 42.364 87.808 42.3295 87.8914C42.0421 87.9718 41.4573 88.0121 40.5751 88.0121H39.0578C39.1325 88.3195 39.3064 88.5595 39.5794 88.7319C39.8524 88.9015 40.2073 88.9862 40.6441 88.9862C41.101 88.9862 41.4932 88.9043 41.8208 88.7405C41.9071 88.6974 41.9717 88.6572 42.0148 88.6198C42.0091 88.7405 42.0019 88.8641 41.9933 88.9905L41.9459 89.663C41.7275 89.8124 41.374 89.9159 40.8855 89.9733C40.7418 89.9906 40.6038 89.9992 40.4717 89.9992C39.7417 89.9992 39.1383 89.7866 38.6612 89.3613C38.1813 88.9331 37.9414 88.3856 37.9414 87.7189ZM41.2346 87.1758C41.1168 86.558 40.7806 86.249 40.226 86.249C39.7892 86.249 39.4572 86.4373 39.2302 86.8137C39.1612 86.9287 39.1081 87.0551 39.0707 87.1931C39.1397 87.1959 39.2245 87.1988 39.3251 87.2017H39.644C39.7504 87.2046 39.8524 87.206 39.9501 87.206H40.1958C40.3423 87.206 40.486 87.2046 40.6268 87.2017L40.9803 87.1887C41.0751 87.1859 41.1599 87.1816 41.2346 87.1758Z" fill="white"/>
<ellipse cx="29.7942" cy="28.0012" rx="28.0012" ry="28.0012" fill="#006837"/>
<path d="M29.8635 13.7939L27.3816 21.9038C28.1519 23.5699 28.9678 25.3265 29.8646 26.9955C30.7497 25.3464 31.5585 23.6053 32.3452 21.9038L29.8635 13.7939Z" fill="white"/>
<path d="M34.07 22.5252C33.093 24.6388 32.0848 26.8188 30.9254 28.8516C31.6007 29.9561 32.3224 30.9835 33.1027 31.8728C34.1679 30.6513 35.2025 29.3618 36.2198 28.0771L38.5944 14.6324C37.0234 16.1363 35.5789 19.2611 34.07 22.5252Z" fill="white"/>
<path d="M21.5068 28.4909C18.9456 25.2482 16.498 22.1494 14.3457 21.0392L20.6568 36.0279C22.2204 39.7415 25.8344 42.141 29.8636 42.141C31.9028 42.141 33.8358 41.5263 35.4504 40.4378C29.963 39.1974 25.4996 33.546 21.5068 28.4909Z" fill="white"/>
<path d="M25.6574 22.5253C24.1484 19.2611 22.7039 16.1363 21.1329 14.6324L23.5076 28.077C25.4954 30.5873 27.6061 33.1862 29.8638 35.2037C30.5476 34.593 31.2156 33.9316 31.8707 33.2355C29.2758 30.3509 27.3607 26.2101 25.6574 22.5253Z" fill="white"/>
<path d="M38.2205 28.4909C36.0387 31.2532 33.7899 34.1002 31.2882 36.3784C33.1795 37.8031 35.1718 38.7486 37.2775 38.8514C38.0158 38.0331 38.626 37.0837 39.0705 36.0279L45.3816 21.0392C43.2294 22.1494 40.7817 25.2482 38.2205 28.4909Z" fill="white"/>
</svg>
